<?xml version="1.0" standalone="no"?><!DOCTYPE svg PUBLIC "-//W3C//DTD SVG 1.1//EN" "http://www.w3.org/Graphics/SVG/1.1/DTD/svg11.dtd"><svg t="1590665486259" class="icon" viewBox="0 0 1024 1024" version="1.1" xmlns="http://www.w3.org/2000/svg" p-id="1186" xmlns:xlink="http://www.w3.org/1999/xlink" width="200" height="200"><defs><style type="text/css"></style></defs><path d="M352 480c16 0 28.8 12.8 32 28.8V672c0 16-12.8 28.8-28.8 32H224c-16 0-28.8-12.8-32-28.8V512c0-16 12.8-28.8 28.8-32H352z m224-288c16 0 28.8 12.8 32 28.8V672c0 16-12.8 28.8-28.8 32H448c-16 0-28.8-12.8-32-28.8V224c0-16 12.8-28.8 28.8-32H576z m224 160c16 0 28.8 12.8 32 28.8V672c0 16-12.8 28.8-28.8 32H672c-16 0-28.8-12.8-32-28.8V384c0-16 12.8-28.8 28.8-32H800z m-480 192H256v96h64v-96z m224-288h-64v384h64V256z m224 160h-64v224h64v-224z" fill="#221814" p-id="1187"></path><path d="M192 800c0-16 12.8-28.8 28.8-32H800c19.2 0 32 12.8 32 32 0 16-12.8 28.8-28.8 32H224c-19.2 0-32-12.8-32-32z" fill="#C70019" p-id="1188"></path></svg>